<mxfile host="app.diagrams.net" modified="2023-08-01T18:44:04.246Z" agent="Mozilla/5.0 (Windows NT 10.0; Win64; x64) AppleWebKit/537.36 (KHTML, like Gecko) Chrome/115.0.0.0 Safari/537.36" etag="xSvenjjL3QF0MmY-EZ1p" version="21.6.6" type="github">
  <diagram name="Page-1" id="b5b7bab2-c9e2-2cf4-8b2a-24fd1a2a6d21">
    <mxGraphModel dx="1311" dy="680" grid="1" gridSize="10" guides="1" tooltips="1" connect="1" arrows="1" fold="1" page="1" pageScale="1" pageWidth="827" pageHeight="1169" background="none" math="0" shadow="0">
      <root>
        <mxCell id="0" />
        <mxCell id="1" style="" parent="0" />
        <mxCell id="6e0c8c40b5770093-72" value="" style="shape=folder;fontStyle=1;spacingTop=10;tabWidth=194;tabHeight=22;tabPosition=left;html=1;rounded=0;shadow=0;comic=0;labelBackgroundColor=default;strokeWidth=1;fillColor=default;fontFamily=Verdana;fontSize=10;align=center;movable=1;resizable=1;rotatable=1;deletable=1;editable=1;locked=0;connectable=1;labelBorderColor=none;fillStyle=auto;" parent="1" vertex="1">
          <mxGeometry x="370" y="210" width="1001" height="620" as="geometry" />
        </mxCell>
        <mxCell id="6e0c8c40b5770093-73" value="Diagrama Visualização de Contexto (Context View)&amp;nbsp;" style="text;html=1;align=left;verticalAlign=top;spacingTop=-4;fontSize=12;fontFamily=Verdana" parent="1" vertex="1">
          <mxGeometry x="380" y="800" width="320" height="20" as="geometry" />
        </mxCell>
        <mxCell id="KWnRXqQy1TNRnVnC_nna-3" value="" style="group;movable=1;resizable=1;rotatable=1;deletable=1;editable=1;locked=0;connectable=1;" vertex="1" connectable="0" parent="1">
          <mxGeometry x="414" y="300" width="520" height="240" as="geometry" />
        </mxCell>
        <mxCell id="6e0c8c40b5770093-33" value="" style="shape=folder;fontStyle=1;spacingTop=10;tabWidth=123;tabHeight=24;tabPosition=left;html=1;rounded=0;shadow=0;comic=0;labelBackgroundColor=none;strokeColor=#666666;strokeWidth=1;fillColor=#f5f5f5;fontFamily=Verdana;fontSize=10;fontColor=#333333;align=center;movable=1;resizable=1;rotatable=1;deletable=1;editable=1;locked=0;connectable=1;" parent="KWnRXqQy1TNRnVnC_nna-3" vertex="1">
          <mxGeometry width="515" height="240" as="geometry" />
        </mxCell>
        <mxCell id="6e0c8c40b5770093-43" value="Leads API" style="shape=folder;fontStyle=1;spacingTop=10;tabWidth=50;tabHeight=17;tabPosition=left;html=1;rounded=0;shadow=0;comic=0;labelBackgroundColor=none;strokeColor=#000000;strokeWidth=1;fillColor=#ffffff;fontFamily=Verdana;fontSize=10;fontColor=#000000;align=center;" parent="KWnRXqQy1TNRnVnC_nna-3" vertex="1">
          <mxGeometry x="49.5" y="90" width="112" height="70" as="geometry" />
        </mxCell>
        <mxCell id="6e0c8c40b5770093-44" value="MondayBB-api" style="shape=folder;fontStyle=1;spacingTop=10;tabWidth=50;tabHeight=17;tabPosition=left;html=1;rounded=0;shadow=0;comic=0;labelBackgroundColor=none;strokeColor=#000000;strokeWidth=1;fillColor=#ffffff;fontFamily=Verdana;fontSize=10;fontColor=#000000;align=center;" parent="KWnRXqQy1TNRnVnC_nna-3" vertex="1">
          <mxGeometry x="226" y="90" width="112" height="70" as="geometry" />
        </mxCell>
        <mxCell id="KWnRXqQy1TNRnVnC_nna-13" value="Sistema Black Beans" style="text;html=1;strokeColor=none;fillColor=none;align=center;verticalAlign=middle;whiteSpace=wrap;rounded=0;" vertex="1" parent="KWnRXqQy1TNRnVnC_nna-3">
          <mxGeometry x="4" y="214" width="130" height="20" as="geometry" />
        </mxCell>
        <mxCell id="KWnRXqQy1TNRnVnC_nna-4" value="" style="group;movable=1;resizable=1;rotatable=1;deletable=1;editable=1;locked=0;connectable=1;" vertex="1" connectable="0" parent="1">
          <mxGeometry x="1080" y="290" width="230" height="480" as="geometry" />
        </mxCell>
        <mxCell id="6e0c8c40b5770093-25" value="" style="shape=folder;fontStyle=1;spacingTop=10;tabWidth=123;tabHeight=24;tabPosition=left;html=1;rounded=0;shadow=0;comic=0;labelBackgroundColor=none;strokeWidth=1;fontFamily=Verdana;fontSize=10;align=center;movable=1;resizable=1;rotatable=1;deletable=1;editable=1;locked=0;connectable=1;fillColor=#f5f5f5;strokeColor=#666666;fontColor=#333333;" parent="KWnRXqQy1TNRnVnC_nna-4" vertex="1">
          <mxGeometry width="230" height="480" as="geometry" />
        </mxCell>
        <mxCell id="6e0c8c40b5770093-27" value="Big Query API" style="shape=folder;fontStyle=1;spacingTop=10;tabWidth=50;tabHeight=17;tabPosition=left;html=1;rounded=0;shadow=0;comic=0;labelBackgroundColor=none;strokeWidth=1;fontFamily=Verdana;fontSize=10;align=center;" parent="KWnRXqQy1TNRnVnC_nna-4" vertex="1">
          <mxGeometry x="59" y="190" width="112" height="70" as="geometry" />
        </mxCell>
        <mxCell id="KWnRXqQy1TNRnVnC_nna-15" value="Google Console" style="text;html=1;strokeColor=none;fillColor=none;align=center;verticalAlign=middle;whiteSpace=wrap;rounded=0;" vertex="1" parent="KWnRXqQy1TNRnVnC_nna-4">
          <mxGeometry x="-1" y="452" width="111" height="20" as="geometry" />
        </mxCell>
        <mxCell id="KWnRXqQy1TNRnVnC_nna-6" value="" style="group;movable=1;resizable=1;rotatable=1;deletable=1;editable=1;locked=0;connectable=1;" vertex="1" connectable="0" parent="1">
          <mxGeometry x="495" y="610" width="332" height="130" as="geometry" />
        </mxCell>
        <mxCell id="6e0c8c40b5770093-47" value="" style="shape=folder;fontStyle=1;spacingTop=10;tabWidth=123;tabHeight=24;tabPosition=left;html=1;rounded=0;shadow=0;comic=0;labelBackgroundColor=none;strokeWidth=1;fontFamily=Verdana;fontSize=10;align=center;movable=1;resizable=1;rotatable=1;deletable=1;editable=1;locked=0;connectable=1;fillColor=#f5f5f5;fontColor=#333333;strokeColor=#666666;" parent="KWnRXqQy1TNRnVnC_nna-6" vertex="1">
          <mxGeometry width="332" height="130" as="geometry" />
        </mxCell>
        <mxCell id="6e0c8c40b5770093-49" value="Monday API" style="shape=folder;fontStyle=1;spacingTop=10;tabWidth=50;tabHeight=17;tabPosition=left;html=1;rounded=0;shadow=0;comic=0;labelBackgroundColor=none;strokeWidth=1;fontFamily=Verdana;fontSize=10;align=center;" parent="KWnRXqQy1TNRnVnC_nna-6" vertex="1">
          <mxGeometry x="165" y="40" width="112" height="70" as="geometry" />
        </mxCell>
        <mxCell id="KWnRXqQy1TNRnVnC_nna-14" value="App&amp;nbsp;Monday" style="text;html=1;strokeColor=none;fillColor=none;align=center;verticalAlign=middle;whiteSpace=wrap;rounded=0;" vertex="1" parent="KWnRXqQy1TNRnVnC_nna-6">
          <mxGeometry x="2" y="106" width="80" height="20" as="geometry" />
        </mxCell>
        <mxCell id="KWnRXqQy1TNRnVnC_nna-16" style="edgeStyle=orthogonalEdgeStyle;rounded=0;orthogonalLoop=1;jettySize=auto;html=1;entryX=0;entryY=0;entryDx=25;entryDy=0;entryPerimeter=0;" edge="1" parent="1" source="6e0c8c40b5770093-44" target="6e0c8c40b5770093-49">
          <mxGeometry relative="1" as="geometry" />
        </mxCell>
        <mxCell id="KWnRXqQy1TNRnVnC_nna-18" value="Requisitando dados de tabelas" style="edgeLabel;html=1;align=center;verticalAlign=middle;resizable=0;points=[];" vertex="1" connectable="0" parent="KWnRXqQy1TNRnVnC_nna-16">
          <mxGeometry x="0.2101" relative="1" as="geometry">
            <mxPoint as="offset" />
          </mxGeometry>
        </mxCell>
        <mxCell id="KWnRXqQy1TNRnVnC_nna-17" style="edgeStyle=orthogonalEdgeStyle;rounded=0;orthogonalLoop=1;jettySize=auto;html=1;entryX=0;entryY=0;entryDx=25;entryDy=0;entryPerimeter=0;" edge="1" parent="1" source="6e0c8c40b5770093-44" target="6e0c8c40b5770093-27">
          <mxGeometry relative="1" as="geometry" />
        </mxCell>
        <mxCell id="KWnRXqQy1TNRnVnC_nna-19" value="Inserindo e atualizando&lt;br&gt;&amp;nbsp;dados" style="edgeLabel;html=1;align=center;verticalAlign=middle;resizable=0;points=[];labelBackgroundColor=none;spacing=8;" vertex="1" connectable="0" parent="KWnRXqQy1TNRnVnC_nna-17">
          <mxGeometry x="0.0805" y="-3" relative="1" as="geometry">
            <mxPoint x="-4" y="22" as="offset" />
          </mxGeometry>
        </mxCell>
      </root>
    </mxGraphModel>
  </diagram>
</mxfile>
